<svg xmlns="http://www.w3.org/2000/svg" viewBox="0 0 787.34 324.26"><defs><style>.a{fill:#fff;}</style></defs><path d="M14.18,117.5H4.33V104.12c.59-.05,1.12-.13,1.64-.13,14.88,0,29.76,0,44.63.1,6.08.07,11.94,1.22,16.69,5.52,6.31,5.7,8.5,16.08,5,23.43a16.81,16.81,0,0,1-7.67,7.56l-1.42.77c-.05,0-.07.09-.2.28.45.23.88.48,1.33.68C72.44,145.89,77.11,151.91,77,161c-.11,9.29-4.29,16.18-12.83,20.16a35.47,35.47,0,0,1-15,3.12c-14.51,0-29,0-43.55,0-.36,0-.72-.06-1.23-.1V170.83h9.8Zm21,53.27c3.33,0,6.5,0,9.66,0,5.32-.09,10.34-2.06,10.71-9.72.29-5.79-2.42-10.53-8.13-11.34-4-.55-8.08-.1-12.24-.1Zm-.11-44.27c0,2.57,0,5.14,0,7.71,0,1.19.41,1.57,1.56,1.54,2.51-.07,5,0,7.54,0,5.15-.14,8.51-3.28,8.89-8.68.34-4.92-1.56-8.4-6.73-9.17a68.89,68.89,0,0,0-10.37-.28c-.29,0-.82.89-.83,1.38C35,121.47,35.07,124,35.07,126.5Z"/><path d="M54.26,309.46c-1.28-4.64-2.41-8.85-3.64-13a1.67,1.67,0,0,0-1.3-.86q-9.34-.09-18.71,0a1.74,1.74,0,0,0-1.35.81c-1.38,4.14-2.66,8.31-4,12.48,0,.09.06.21.17.54H35.68v13.37H.32V309.37h5.1c4.79,0,4.8,0,6.15-4.55q6.9-23.22,13.79-46.46c.18-.62.31-1.26.55-2.23H15.41V242.75h52c0,.77.11,1.58.11,2.39,0,3-.09,6,0,9,.07,1.66-.54,2.06-2.07,2-2.21-.11-4.43,0-6.65,0h-2c1.35,4.31,2.58,8.3,3.84,12.28,4.1,13,8.22,25.9,12.26,38.87.51,1.63,1.22,2.32,3,2.17a45.28,45.28,0,0,1,5.94,0c.44,0,1.22.55,1.23.85.08,4.13,0,8.25,0,12.49H44.34V309.46Zm-7.14-25.77c-2.19-8.15-4.34-16.13-6.48-24.11h-.46c-2.37,8-4.74,16-7.17,24.1Z"/><path d="M219.26,192.7c4.13,2.33,8.3,3.94,12.91,4a28,28,0,0,0,5.18-.41c5.06-1,8.28-4,9.22-9.07a91,91,0,0,0,.78-9.21l-.56-.27c-.64.46-1.29.91-1.91,1.39-4,3.13-8.42,5.57-13.67,5.81-7.89.37-14.06-2.93-18.68-9.18-8-10.84-7.84-28.4.34-39.11,6.95-9.09,19.51-11.85,28.54-6.15A59.92,59.92,0,0,1,247,135v-6.38h27.32v12.44h-6.3c-3.37,0-2.93-.23-2.94,2.85,0,13.67.16,27.34-.1,41-.18,9.63-3.68,17.68-12.86,22.24a32.88,32.88,0,0,1-12.83,3.11c-7.35.46-14.62,0-21.64-2.37a74.82,74.82,0,0,1-7.18-3.31Zm16.59-21.92a9.86,9.86,0,0,0,9.18-5.54c2.7-5,2.69-10.24,1-15.5-1.62-5-5.48-7.71-10.33-7.65-4.7.06-8.32,2.93-9.87,8a20.55,20.55,0,0,0,.37,13.73C227.94,168.34,231.36,170.76,235.85,170.78Z"/><path d="M676.55,178.84v17.8h10.34v12.68H649.07V196.74h9.19V141.15h-9.17v-12.5h27.26v6.61a18.94,18.94,0,0,0,1.54-1.26c9.4-9.94,24.47-8,32.29,2.53,5.16,6.92,6.82,14.81,6.19,23.25-.52,7-2.6,13.38-7.4,18.68a22,22,0,0,1-30.47,2Zm21.82-20.43c-.15-5-.55-8.28-2.32-11.26-4-6.73-13.91-6.93-17.5-.12a20.33,20.33,0,0,0,.16,19.81c1.94,3.66,5.27,5.25,9.44,5a9,9,0,0,0,8.26-6A51,51,0,0,0,698.37,158.41Z"/><path d="M252.26,322.74V288.48c0-.54,0-1.08,0-1.62-.23-5.79-2.65-7.4-8.39-6.29-2.11.41-4.08,1.65-6.05,2.62a1.85,1.85,0,0,0-.86,1.38c0,8.4,0,16.79,0,25.48h8V322.7H210.31V310.15h8.39V255.37h-8.45V242.75H236.9v28.63l3.87-2.32A22.4,22.4,0,0,1,256.64,266a15.84,15.84,0,0,1,13.49,16q.09,13,0,26.09c0,1.54.35,2.15,2,2,2-.14,4,0,6.19,0v12.65Z"/><path d="M347.41,141.07V128.6h26.53c.07,1.48.15,3,.24,4.82l2.44-1.58c4.93-3.19,10.22-4.9,16.17-4.1,8,1.07,13.62,6.58,14.08,14.81s.3,16.3.4,24.45c0,1.43,0,2.85,0,4.49,2.34,0,4.49-.07,6.62,0,.53,0,1.48.61,1.48,1,.11,3.83.07,7.66.07,11.63H389.31c0-.77-.12-1.54-.12-2.3q0-16.2,0-32.4c0-6-2.66-8-8.45-6.54-.41.11-.81.23-1.2.37-5.08,1.73-5.46,2.26-5.46,7.6v20.61h7.28v12.65H347.46V171.58h8.36c.06-.69.15-1.2.15-1.71,0-9,0-18,0-27,0-1.44-.44-1.88-1.84-1.82C352,141.14,349.76,141.07,347.41,141.07Z"/><path d="M608.07,267.16h26.42v4.95c1.06-.66,1.74-1.06,2.4-1.49,5-3.27,10.27-5.13,16.3-4.3,8.52,1.17,14,6.92,14.35,15.54s.21,17.14.29,25.71v2.52h8v12.66H649.73v-2.23c0-11.15,0-22.31,0-33.47,0-4.62-2.58-6.78-7.08-5.82a38.55,38.55,0,0,0-5.24,1.79c-2.22.83-3,2.28-3,4.8.22,6.77.11,13.56,0,20.33,0,1.45.36,2.07,1.91,2,1.78-.13,3.57,0,5.49,0v12.64H608.06V310.12h8.42c0-.79.1-1.37.1-1.95,0-8.81-.05-17.63,0-26.45,0-1.73-.58-2.16-2.16-2.07-2.08.11-4.18,0-6.39,0Z"/><path d="M212.28,44.58V57H186.43c0-.76-.1-1.51-.1-2.27q0-15.74,0-31.48a24.21,24.21,0,0,0-.26-3.4c-.44-3.08-2.31-4.66-5.43-4.5a16.77,16.77,0,0,0-8.81,3.27,2.29,2.29,0,0,0-.75,1.65c-.05,7.62,0,15.23-.05,22.85,0,1.12.45,1.46,1.5,1.44,1.85-.05,3.71,0,5.73,0V57h-33.8V44.59c2.12,0,4.32-.1,6.5,0,1.65.1,2.13-.45,2.12-2.12-.08-8.75,0-17.51,0-26.26v-2h-8.61V1.52H171v5c.86-.55,1.39-.85,1.89-1.19,5-3.41,10.4-5.36,16.56-4.64,8.17.94,13.61,6.23,14.43,14.45.38,3.74.33,7.53.36,11.31q.09,8.27,0,16.55c0,1.27.4,1.68,1.65,1.64C208,44.53,210,44.58,212.28,44.58Z"/><path d="M505.15,139.76l21.09,24.78c1.4,1.64,2.87,3.23,4.18,4.94a3.11,3.11,0,0,0,2.91,1.31c2.09-.08,4.17,0,6.34,0V184.1h-43v-2.93c0-2.76.11-5.52,0-8.28-.1-1.81.57-2.25,2.25-2.15,2.2.13,4.41,0,7.21,0l-24.29-28.7L508,117.58h-9.37V104.12h39a8,8,0,0,1,.22,1.31c0,3.48,0,7,0,10.44,0,1.27-.45,1.71-1.68,1.64s-2.78.13-4.14-.05c-3-.4-5.14.63-7.25,2.79-6.16,6.3-12.55,12.39-18.84,18.56C505.73,139.06,505.51,139.34,505.15,139.76Z"/><path d="M725.15,140.2A20.79,20.79,0,0,1,738.37,129a48.25,48.25,0,0,1,27.13-.17c8.55,2.42,12.88,8.84,12.93,18.49,0,7.32,0,14.64,0,21.95v2.23h8.9v12.7H760.66c-.09-1.24-.17-2.5-.29-4.11-1,.61-1.73,1.08-2.48,1.52-7.71,4.51-15.71,5-23.68,1-11.9-6-12.86-21.77-1.83-29.25,7.7-5.23,16.14-5.39,24.82-3,1,.27,1.92.6,2.87.9,2.13-5.44-2.15-12-8.18-12.78a13.85,13.85,0,0,0-11.53,3.35,3.83,3.83,0,0,1-1.7.67,3.55,3.55,0,0,1-1.24-.13Zm35.61,25.71c-.28-.86-.29-2.13-.88-2.53-3.29-2.23-6.76-4.1-11-3.74-4.42.37-7.62,3.85-7.12,7.83a7.51,7.51,0,0,0,9,6.57c3.16-.53,5.55-2.38,8-4.27C760,168.78,760.94,167.72,760.76,165.91Z"/><path d="M110.46,57V53c-.88.53-1.47.86-2,1.22a24,24,0,0,1-22,2.34c-6.5-2.42-10.81-7-11.55-14-.79-7.63,2.5-13.46,9.09-17.2,7.28-4.15,15.06-4.25,23-2.06,1.08.29,2.15.63,3.23.95,1.51-6.76-2.51-12.26-9.13-12.83a13.88,13.88,0,0,0-10.64,3.41,3,3,0,0,1-2.17.6c-4-.57-7.91-1.28-11.86-2a10.47,10.47,0,0,1-1.15-.34A20.82,20.82,0,0,1,87.53,2.18C93.81,0,100.32-.28,106.87.21a45.59,45.59,0,0,1,7.78,1.28c8.54,2.19,13.44,8.3,13.62,17.16.17,7.91.12,15.83.06,23.74,0,1.73.49,2.34,2.23,2.23,2.15-.14,4.31,0,6.63,0V57Zm.18-18.09c-.24-.88-.21-2.18-.79-2.57-3.34-2.27-6.86-4.19-11.16-3.74-4.57.48-7.42,4-6.78,8.41a7.51,7.51,0,0,0,9,6c3-.57,5.35-2.3,7.67-4.13C109.86,41.86,110.9,40.81,110.64,38.92Z"/><path d="M449.31,104.1h41.35v13.35h-9.48v53.33h9.55v13.33H449.32V170.79H460V117.5H449.31Z"/><path d="M545.25,156.78c.26-11.48,4.1-20.44,14-26,11-6.15,26.49-4.65,35.76,3.42a25.94,25.94,0,0,1,8.57,16.17c1.14,7.35.48,14.49-3.13,21.11-4.44,8.13-11.57,12.41-20.56,13.75a32.43,32.43,0,0,1-19.61-2.78c-8.65-4.29-13.21-11.51-14.63-20.88C545.42,159.82,545.36,158,545.25,156.78Zm18.27-.26c0,3.62.49,7.21,2.44,10.45a9.61,9.61,0,0,0,9.34,4.88c3.89-.17,6.89-2,8.4-5.46a29.54,29.54,0,0,0,2.07-8.09,20.65,20.65,0,0,0-1.92-11.89,9.65,9.65,0,0,0-9.12-5.63,9.52,9.52,0,0,0-9.13,5.56A22.67,22.67,0,0,0,563.52,156.52Z"/><path d="M339,172a28.33,28.33,0,0,1-16.64,12.19,40.23,40.23,0,0,1-24.58-.79c-10.39-3.71-16.37-11.19-17.53-22.21s2-20.82,11-27.94c12.67-10,35.23-8.57,44.31,8.6a33.62,33.62,0,0,1,3.57,16.86,8.79,8.79,0,0,1-.3,1.36H298.22c-.8,6.47,4.14,12.74,10.54,13.85,5.71,1,10.4-.89,14.4-4.76a3.34,3.34,0,0,1,3.94-.9C330.94,169.61,334.85,170.72,339,172Zm-17.7-21.95a11.56,11.56,0,0,0-12.13-11.36,10.92,10.92,0,0,0-10.93,11.36Z"/><path d="M144.48,160.13H103.24a12.88,12.88,0,0,0,10.41,13.79c5.85,1.05,10.62-.91,14.69-4.91a3.11,3.11,0,0,1,3.66-.77c3.89,1.31,7.83,2.48,12,3.77a27.53,27.53,0,0,1-8.55,8.6c-7,4.44-14.71,5.5-22.77,4.87a33.8,33.8,0,0,1-14.55-4.17c-7.86-4.53-12-11.45-12.89-20.4-.85-8.65,1-16.62,6.61-23.37,6.8-8.15,15.87-11.2,26.17-10.33,12.89,1.1,22.28,9.33,25.16,21.81C144,152.52,144,156.2,144.48,160.13Zm-18.24-10.06c.19-6.75-5.52-11.72-12.89-11.32-5.83.32-10.78,5.88-10,11.32Z"/><path d="M425.55,298.68H384.49c-1,6.25,4.19,12.79,10.53,13.85,5.79,1,10.51-.93,14.52-4.9a3.08,3.08,0,0,1,3.65-.81c3.89,1.31,7.84,2.47,12.36,3.87-2.12,2.28-3.85,4.47-5.92,6.28-5.24,4.61-11.58,6.65-18.43,7.14-7.34.51-14.5-.32-21.11-3.83-8.57-4.54-12.93-11.86-13.69-21.39-.62-7.83.86-15.22,5.73-21.56C379.27,268,389,264.52,400.39,266c13.23,1.74,21.85,10.1,24.35,23.1A90.4,90.4,0,0,1,425.55,298.68Zm-17.9-10c-.91-7.53-5.62-11.59-12.89-11.3-5.88.23-10.08,4.79-10.34,11.3Z"/><path d="M599.35,298.72H558.7c-.69,8.43,6.84,15.15,15.35,14,4-.54,7.18-2.58,10-5.26a2.76,2.76,0,0,1,3.18-.73c4,1.33,8.07,2.54,12.31,3.86a27.8,27.8,0,0,1-10.85,9.94c-6.44,3.32-13.34,4.1-20.44,3.54a34.18,34.18,0,0,1-13.61-3.65c-9.56-5.09-13.81-13.32-14-23.94-.31-14.08,7.9-25.77,20.85-29.55s26.35.68,33.26,11.12C598.5,283.81,600.5,292.43,599.35,298.72Zm-17.43-10c-.55-7.37-5.77-11.72-13.17-11.34-5.13.26-9.78,4.4-9.93,11.34Z"/><path d="M0,14.17V1.54H32.77c0,3.91,0,7.8-.06,11.68,0,.33-.86.86-1.36.91-1.35.12-2.72,0-4.41,0l8.6,25,.46.13C39.39,31,42.78,22.76,46.3,14.19H40.52c0-2.64,0-5.07,0-7.5,0-1.67-.53-4,.34-4.82s3.25-.46,5-.47c6.78,0,13.56,0,20.33,0h2.29V14.17c-2,0-4,.09-6,0a2.32,2.32,0,0,0-2.64,1.75C54.21,29.46,48.55,43,43,56.54a2.22,2.22,0,0,1-2.47,1.68c-3.83-.11-7.68-.13-11.51,0a2.49,2.49,0,0,1-2.74-1.85C20.51,42.94,14.68,29.55,9,16.11c-.65-1.54-1.43-2.09-3.05-2C4,14.28,2,14.17,0,14.17Z"/><path d="M201.33,267.2v22.46c-3.87,0-7.63,0-11.39-.06-.45,0-1-.71-1.29-1.22-2.11-3.77-5-6.56-9.29-7.67-9.17-2.38-16.58,3.13-17.1,12.9a24,24,0,0,0,.86,7.63c2.07,7.55,8.86,11,16.31,8.51a16.79,16.79,0,0,0,8.13-6c.58-.75,1.1-1.55,1.74-2.46l6.72,3,6.84,3.06a12.4,12.4,0,0,1-.49,1.36c-5.09,10.16-13.55,15-24.68,15.51a38.36,38.36,0,0,1-16.38-2.59c-13.12-5.35-18.15-17.07-17.25-29.05.8-10.56,5.59-18.84,15.32-23.51,9-4.32,18.07-4,26.91.78.88.48,1.74,1,2.87,1.62.07-1.56.12-2.84.19-4.25Z"/><path d="M478.71,271.51V267.2h12.05v22.46c-2.18,0-4.38-.15-6.55,0-3.39.3-5.66-.37-7.85-3.67-4.81-7.26-15.59-7.88-21.14-1.75-3.24,3.58-3.86,8-3.49,12.62a22,22,0,0,0,.83,4.4c2.2,7.5,9,11,16.39,8.43a17.46,17.46,0,0,0,8.75-6.88l1.08-1.55,13.63,6.06c-.35.77-.62,1.42-.94,2-5.15,9.72-13.48,14.29-24.22,14.81A37.36,37.36,0,0,1,450,321.28c-9.75-4.36-15.17-11.94-16.37-22.54-1-8.69.93-16.6,6.71-23.3,8.72-10.11,24.06-12.25,36.09-5.2C477.12,270.62,477.78,271,478.71,271.51Z"/><path d="M637.68,171.56h7.91V184.1H610.94v-3.81c0-2.28.1-4.57,0-6.84-.1-1.65.54-2.09,2.07-2s3.36-.05,5,0c1.33.08,1.79-.38,1.76-1.73-.07-3.54,0-7.08,0-10.62,0-13.37,0-26.75,0-40.13,0-1.82-.47-2.47-2.31-2.29-1.6.16-3.24,0-4.85.05-1.2,0-1.75-.3-1.72-1.61.07-3.24,0-6.48,0-9.71,0-.87.1-1.5,1.24-1.49,8.27,0,16.55,0,24.83,0a2.9,2.9,0,0,1,.67.23Z"/><path d="M153,141.07V128.6h25.36v13.5l.4.34c3.78-10.21,10.82-15.46,21.88-14.91v16.6c-2.21.2-4.38.23-6.47.62-7.36,1.37-12,6-13.15,13.58-.61,3.88-.52,7.87-.76,11.81-.06,1,.4,1.37,1.39,1.36,2.7,0,5.4-.06,8.1,0,.49,0,1.39.54,1.4.85.09,3.89.06,7.77.06,11.77H152v-12.6h10.17c0-.87.11-1.46.11-2,0-8.82,0-17.64,0-26.46,0-1.62-.5-2.08-2.06-2C157.87,141.16,155.48,141.07,153,141.07Z"/><path d="M89.59,322.7V310.09c2.84,0,5.59-.09,8.33,0,1.59.07,2-.45,2-2q-.11-13.23,0-26.45c0-1.62-.54-2.07-2.08-2-2.38.1-4.78,0-7.33,0V267.15H116v13.49l.39.3c3.79-10.16,10.83-15.39,21.88-14.81v16.6c-2.17.19-4.39.22-6.53.62-7.81,1.44-12.56,6.75-13.44,15.16-.39,3.73-.38,7.51-.56,11.55h10.91V322.7Z"/><path d="M331.49,279.69H324.4c0-4,0-7.85.06-11.67,0-.33.85-.88,1.33-.91,1.83-.11,3.68,0,5.7,0,0-2.72,0-5.17,0-7.61a2.42,2.42,0,0,1,.62-1.7c5.64-4.06,11.32-8,17.32-12.28.05.89.12,1.49.12,2.1q0,7.38,0,14.75c0,4.74,0,4.74,4.83,4.74h5.12v12.6c-2.72,0-5.34.09-8,0-1.58-.07-2,.44-2,2,.08,7.68,0,15.35,0,23a19.53,19.53,0,0,0,.11,2.16c.25,2,1.26,3.09,3.29,3.08s4.24-.31,6.68-.51V317c0,4.24,0,4.27-4.08,5.39-4.54,1.25-9.14,1.94-13.83.86-6.67-1.54-10.24-6-10.26-12.84q0-14.13,0-28.25Z"/><path d="M523.83,245.44v9.08c0,3.59,0,7.2,0,10.79,0,1.32.36,1.82,1.73,1.78,2.69-.09,5.38,0,8.22,0v12.62c-2.83,0-5.53,0-8.22,0-1.16,0-1.74.24-1.73,1.58.08,8.22.06,16.44.13,24.65,0,3,1.19,4.09,4.2,4.1a20.92,20.92,0,0,0,2.86-.19c.87-.13,1.72-.39,2.92-.67v7.15c0,5,0,5.05-4.93,6.35a27,27,0,0,1-13,.6c-6.54-1.5-10.15-6-10.18-12.71,0-9.48,0-19,0-28.44,0-2.4,0-2.4-2.48-2.41h-4.41v-12.6c1.67,0,3.27-.09,4.86,0s2.18-.34,2.06-2a50.14,50.14,0,0,1,0-5.75,2.4,2.4,0,0,1,.7-1.69C512.15,253.64,517.79,249.69,523.83,245.44Z"/><path d="M286.37,279.67V267.19c.62,0,1.19-.12,1.76-.12,7.44,0,14.87,0,22.31,0,1.49,0,1.93.43,1.92,1.92-.05,12.95,0,25.91-.07,38.86,0,1.79.42,2.48,2.29,2.31s3.81,0,5.84,0v12.64H286.24c0-3.92,0-7.8.06-11.68,0-.33.87-.89,1.35-.92,2.15-.1,4.31,0,6.63,0,.05-.62.13-1.13.13-1.65,0-9,0-18,0-27,0-1.46-.47-1.87-1.85-1.81C290.57,279.74,288.54,279.67,286.37,279.67Z"/><path d="M294,250.89a9.44,9.44,0,0,1,9.62-9.67,9.69,9.69,0,0,1,.14,19.37A9.44,9.44,0,0,1,294,250.89Z"/><path class="a" d="M35.18,170.77V149.6c4.16,0,8.27-.45,12.24.1,5.71.81,8.42,5.55,8.13,11.34-.37,7.66-5.39,9.63-10.71,9.72C41.68,170.81,38.51,170.77,35.18,170.77Z"/><path class="a" d="M35.07,126.5c0-2.52,0-5,0-7.54,0-.49.54-1.38.83-1.38a68.89,68.89,0,0,1,10.37.28c5.17.77,7.07,4.25,6.73,9.17-.38,5.4-3.74,8.54-8.89,8.68-2.51.07-5,0-7.54,0-1.15,0-1.59-.35-1.56-1.54C35.12,131.64,35.07,129.07,35.07,126.5Z"/><path class="a" d="M47.12,283.69H33c2.43-8.15,4.8-16.12,7.17-24.1h.46C42.78,267.56,44.93,275.54,47.12,283.69Z"/><path class="a" d="M235.85,170.78c-4.49,0-7.91-2.44-9.66-7a20.55,20.55,0,0,1-.37-13.73c1.55-5,5.17-7.91,9.87-8,4.85-.06,8.71,2.69,10.33,7.65,1.7,5.26,1.71,10.53-1,15.5A9.86,9.86,0,0,1,235.85,170.78Z"/><path class="a" d="M698.37,158.41a51,51,0,0,1-2,7.48,9,9,0,0,1-8.26,6c-4.17.25-7.5-1.34-9.44-5a20.33,20.33,0,0,1-.16-19.81c3.59-6.81,13.53-6.61,17.5.12C697.82,150.13,698.22,153.45,698.37,158.41Z"/><path class="a" d="M760.76,165.91c.18,1.81-.72,2.87-2,3.86-2.41,1.89-4.8,3.74-8,4.27a7.51,7.51,0,0,1-9-6.57c-.5-4,2.7-7.46,7.12-7.83,4.21-.36,7.68,1.51,11,3.74C760.47,163.78,760.48,165.05,760.76,165.91Z"/><path class="a" d="M110.64,38.92c.26,1.89-.78,2.94-2.09,4-2.32,1.83-4.66,3.56-7.67,4.13a7.51,7.51,0,0,1-9-6c-.64-4.43,2.21-7.93,6.78-8.41,4.3-.45,7.82,1.47,11.16,3.74C110.43,36.74,110.4,38,110.64,38.92Z"/><path class="a" d="M563.52,156.52a22.67,22.67,0,0,1,2.08-10.18,9.52,9.52,0,0,1,9.13-5.56,9.65,9.65,0,0,1,9.12,5.63,20.65,20.65,0,0,1,1.92,11.89,29.54,29.54,0,0,1-2.07,8.09c-1.51,3.5-4.51,5.29-8.4,5.46A9.61,9.61,0,0,1,566,167C564,163.73,563.54,160.14,563.52,156.52Z"/><path class="a" d="M321.3,150.06H298.24a10.92,10.92,0,0,1,10.93-11.36A11.56,11.56,0,0,1,321.3,150.06Z"/><path class="a" d="M126.24,150.07H103.33c-.76-5.44,4.19-11,10-11.32C120.72,138.35,126.43,143.32,126.24,150.07Z"/><path class="a" d="M407.65,288.64H384.42c.26-6.51,4.46-11.07,10.34-11.3C402,277.05,406.74,281.11,407.65,288.64Z"/><path class="a" d="M581.92,288.68h-23.1c.15-6.94,4.8-11.08,9.93-11.34C576.15,277,581.37,281.31,581.92,288.68Z"/></svg>